<svg style="enable-background:new 0 0 256 256" viewBox="0 0 256 256" xml:space="preserve" xmlns="http://www.w3.org/2000/svg"><style>.st1{fill:none;stroke:#00a388;stroke-width:4px;stroke-miterlimit:10}.st3{fill:#cc4e47}.st5{fill:#4b687f}.st6{fill:#2c3e50}.st8{fill:#ffab80}.st9{filter:url(#Adobe_OpacityMaskFilter)}.st10{-webkit-mask:url(#SVGID_2_);-webkit-mask:url(#SVGID_2_);mask:url(#SVGID_2_)}.st11{fill:#f09a79}.st12{fill:#00886f}.st13{fill:#00a388}.st14{fill:none;stroke:#3e5063;stroke-width:4px;stroke-miterlimit:10}.st15{fill:#ffd766}.st16{fill:#5488b7}.st17{fill:#8c623b}.st18{fill:#e6e6e6;stroke:#3e5063;stroke-width:16px;stroke-miterlimit:10}.st19{opacity:.6}.st20{fill:#e6e6e6}.st21{fill:none;stroke:#d5e2eb;stroke-width:5px;stroke-miterlimit:10}.st22{fill:#ffec9f}.st23{fill:#603813}.st24{filter:url(#Adobe_OpacityMaskFilter_1_)}.st25{-webkit-mask:url(#SVGID_1_);-webkit-mask:url(#SVGID_1_);mask:url(#SVGID_1_)}</style><circle cx="128" cy="128" r="120" style="fill:#d5e2eb" id="Layer_2"/><g id="Layer_1"><path class="st5" d="M58.178 154.666h139.688v-85.34c0-2.5-2.045-4.544-4.544-4.544h-130.6a4.558 4.558 0 0 0-4.544 4.544v85.34zM148.405 174.375c.73 2.081-.845 4.07-2.847 4.07h-35.116c-2.002 0-3.578-1.989-2.847-4.07H46v5.865c0 6.063 4.915 10.978 10.978 10.978h142.044c6.063 0 10.978-4.915 10.978-10.978v-5.865h-61.595z"/><path style="fill:#fff" d="M67.267 73.87h121.511v71.707H67.267z"/><path style="fill:#3e5063" d="M197.866 157.56H58.178L46 174.375h164z"/><circle cx="199.796" cy="182.574" r="2.894" style="fill:#ea685e"/></g></svg>