<svg version="1.1" id="Layer_1" xmlns="http://www.w3.org/2000/svg" x="0" y="0" viewBox="0 0 24 24" xml:space="preserve"><path fill="#303C42" d="m23.908 16.12-4.07-13.563C19.5 1.422 18.265.75 17.12 1.092l-5.157 1.547A2 2 0 0 0 10 1c-1.103 0-2 .897-2 2H2C.897 3 0 3.897 0 5v15c0 1.103.897 2 2 2h4.422c.394.613 1.07 1 1.83 1 .214 0 .425-.031.628-.092l13.563-4.07A2.17 2.17 0 0 0 24 16.749a2.18 2.18 0 0 0-.092-.628z"/><circle fill="#F37021" cx="10" cy="3" r="1"/><path opacity=".1" fill="#010101" d="M10.408 2.092a.985.985 0 0 1 .092.408c0 .551-.449 1-1 1a.985.985 0 0 1-.408-.092A.999.999 0 0 0 10 4c.551 0 1-.449 1-1a.999.999 0 0 0-.592-.908z"/><path fill="#FFCB29" d="M1 20V5c0-.551.449-1 1-1h5.427l-3.87 1.161A2.17 2.17 0 0 0 2 7.253c0 .213.031.424.092.627L6.028 21H2c-.551 0-1-.449-1-1z"/><path fill="#FFF" d="M22.156 17.88 8.593 21.95a1.209 1.209 0 0 1-1.474-.794L3.05 7.593a1.191 1.191 0 0 1 .794-1.474l4.995-1.498C9.166 4.857 9.565 5 10 5c.18 0 .35-.031.515-.076l.569.853a.5.5 0 1 0 .832-.554l-.526-.79a2 2 0 0 0 .473-.72l5.543-1.663a1.21 1.21 0 0 1 1.475.794l4.07 13.563a1.191 1.191 0 0 1-.794 1.474z"/><linearGradient id="SVGID_1_" gradientUnits="userSpaceOnUse" x1="10.115" y1="3.344" x2="23.503" y2="16.732"><stop offset="0" style="stop-color:#010101;stop-opacity:.1"/><stop offset="1" style="stop-color:#010101;stop-opacity:0"/></linearGradient><path fill="url('#SVGID_1_')" d="M22.156 17.88a1.191 1.191 0 0 0 .794-1.473l-1.192-3.974-8.991-8.991-.904.271a2 2 0 0 1-.473.72l.526.79a.5.5 0 1 1-.832.554l-.569-.853A1.976 1.976 0 0 1 10 5c-.435 0-.834-.143-1.162-.379L22.11 17.894l.045-.013z"/><linearGradient id="SVGID_2_" gradientUnits="userSpaceOnUse" x1="-.894" y1="6.475" x2="23.676" y2="17.932"><stop offset="0" style="stop-color:#fff;stop-opacity:.2"/><stop offset="1" style="stop-color:#fff;stop-opacity:0"/></linearGradient><path fill="url('#SVGID_2_')" d="m23.908 16.12-4.07-13.563C19.5 1.422 18.265.75 17.12 1.092l-5.157 1.547A2 2 0 0 0 10 1c-1.103 0-2 .897-2 2H2C.897 3 0 3.897 0 5v15c0 1.103.897 2 2 2h4.422c.394.613 1.07 1 1.83 1 .214 0 .425-.031.628-.092l13.563-4.07A2.17 2.17 0 0 0 24 16.749a2.18 2.18 0 0 0-.092-.628z"/></svg>